<svg xmlns="http://www.w3.org/2000/svg" viewBox="0 0 184.5992 197.8725"><defs><style>.cls-1{fill:#5b5b5f;}</style></defs><title>Asset 12</title><g id="Layer_2" data-name="Layer 2"><g id="Capa_1" data-name="Capa 1"><polygon class="cls-1" points="92.301 63.693 97.552 65.481 165.639 88.654 165.639 42.584 18.96 42.584 18.96 88.654 87.05 65.481 92.301 63.693"/><polygon class="cls-1" points="139.291 12.495 100.177 12.495 100.177 0 83.879 0 83.879 12.495 45.308 12.495 45.308 35.558 139.291 35.558 139.291 12.495"/><path class="cls-1" d="M93.4042,75.1751v-.7636l-1.1218.3818L91.159,74.411v.7646L0,106.2012l34.4876,85.5944a44.49,44.49,0,0,1,14.64-2.3561,43.265,43.265,0,0,1,26.2105,8.4325,43.722,43.722,0,0,1,16.9391-7.5151,43.7237,43.7237,0,0,1,16.9406,7.5156,43.2638,43.2638,0,0,1,26.2115-8.433,44.5693,44.5693,0,0,1,14.3056,2.2486l34.8646-85.4755Z"/></g></g></svg>