<svg xmlns="http://www.w3.org/2000/svg" viewBox="0 0 377.1283 169.6133"><defs><style>.cls-1{fill:#5b5b5f;}</style></defs><title>Asset 14</title><g id="Layer_2" data-name="Layer 2"><g id="Capa_1" data-name="Capa 1"><path class="cls-1" d="M27.0255,120.3457c-.9607,12.7673-1.7861,25.1086-1.7861,29.0072a11.1955,11.1955,0,0,0,8.0165,11.0864s20.833.0537,28.98.0537c8.0992,0,12.6253-4.1715,12.6253-4.1715l20.31-15.6729C69.27,135.0568,44.7125,128.22,27.0255,120.3457Z"/><path class="cls-1" d="M97.5511,27.0422c-10.4188-7.35-22.8584-16.6447-24.2832-19.92C70.7829,1.3879,64.0391,0,64.0391,0H40.1205C29.7453,0,29.7453,7.9952,29.7453,7.9952V48.8638C47.7545,40.683,72.0768,33.3118,97.5511,27.0422Z"/><path class="cls-1" d="M216.9574,157.7083c-10.31-.2953-27.3643-1.8129-47.4324-4.412l5.6959,9.0208s2.2334,7.2962,15.7545,7.2962h91.4515s7.2683-.24,10.8236-5.91c1.0814-1.7469,3.7622-7.011,5.9743-11.2374C277.3864,156.6492,250.2793,158.6689,216.9574,157.7083Z"/><path class="cls-1" d="M195.1849,101.8009c-84.5981,0-167.5857-7.6452-194.4423-10.3539,11.9923,34.0756,172.84,56.6611,216.2148,57.9059,120.4766,3.4848,160.1709-31.8792,160.1709-68.1938,0-.6878-.0435-1.3868-.0872-2.0645C335.9,96.5915,265.0128,101.8009,195.1849,101.8009Z"/><path class="cls-1" d="M376.5982,70.9036c-5.3625-33.9773-52.4784-65.8028-159.6408-56.65C172.2449,18.0762.89,47.3675,0,83.5613,44.7125,88.018,289.0778,110.1338,376.5982,70.9036Z"/></g></g></svg>