<svg xmlns="http://www.w3.org/2000/svg" viewBox="0 0 209.6976 25.6178"><defs><style>.cls-1{fill:#5b5b5f;}</style></defs><title>Asset 13</title><g id="Layer_2" data-name="Layer 2"><g id="Capa_1" data-name="Capa 1"><path class="cls-1" d="M191.8673,6.1676C189.0087,8.2,187.4338,9.32,183.4822,9.32s-5.5266-1.12-8.3852-3.1525C171.4365,3.5648,166.4228,0,157.2673,0s-14.1681,3.5648-17.8286,6.1681c-2.858,2.0323-4.4318,3.152-8.3829,3.152s-5.5255-1.12-8.3836-3.152C119.0117,3.5648,113.9986,0,104.8436,0S90.676,3.5648,87.0156,6.1681C84.1575,8.2,82.5837,9.32,78.6326,9.32S73.1077,8.2,70.25,6.1681C66.59,3.5648,61.577,0,52.4221,0S38.254,3.5648,34.594,6.1681C31.736,8.2,30.1622,9.32,26.2111,9.32s-5.525-1.12-8.3825-3.152C14.1681,3.5654,9.155,0,0,0V16.2977c3.9506,0,5.5249,1.12,8.383,3.1519,3.66,2.6033,8.6731,6.1682,17.8281,6.1682S40.3792,22.0529,44.04,19.45c2.8581-2.0323,4.4325-3.1519,8.3836-3.1519s5.5249,1.12,8.3824,3.1519c3.66,2.6033,8.6731,6.1682,17.8281,6.1682s14.1681-3.5654,17.828-6.1682c2.8576-2.0323,4.4319-3.1519,8.3825-3.1519s5.5254,1.12,8.3835,3.1519c3.66,2.6033,8.6736,6.1682,17.8286,6.1682s14.1681-3.5649,17.8281-6.1682c2.858-2.0323,4.4324-3.1519,8.3835-3.1519s5.5265,1.12,8.3852,3.1525c3.66,2.6027,8.6741,6.1676,17.83,6.1676s14.1693-3.5649,17.83-6.1676c2.8586-2.0329,4.4335-3.1525,8.3852-3.1525V0C200.5415,0,195.5278,3.5648,191.8673,6.1676Z"/></g></g></svg>