<svg xmlns="http://www.w3.org/2000/svg" viewBox="0 0 116.898 215.755"><defs><style>.cls-1{fill:#5b5b5f;}</style></defs><title>Asset 21</title><g id="Layer_2" data-name="Layer 2"><g id="Capa_1" data-name="Capa 1"><path class="cls-1" d="M103.5466,152.0468a32.9275,32.9275,0,0,0,13.3514-26.4726V51.7519A33.0192,33.0192,0,0,0,83.8789,18.7328h-6.302A13.1609,13.1609,0,0,0,65.6065,0H51.6936A13.1364,13.1364,0,0,0,39.7094,18.7328h-6.69A33.0281,33.0281,0,0,0,0,51.7519V68.0242c11.6389-5.6257,60.7867-25.9334,116.495.316V72.7C57.9234,44.1409,6.5459,69.01,0,72.4338v53.14a32.9538,32.9538,0,0,0,12.4882,25.8324,28.0456,28.0456,0,0,0,11.3656,21.9408L5.6251,206.7555c-.5755,1.0431-1.813,3.7333-1.1368,6.064l.7485,1.7915,2.2585,1.144h.8633c2.9643,0,4.9782-3.0718,5.5823-4.2232L34.8747,178.347a28.3068,28.3068,0,0,0,5.7694.59H75.4333a28.0609,28.0609,0,0,0,5.4239-.5326l20.79,32.9551c.7337,1.3237,2.7337,4.3955,5.6972,4.3955a3.831,3.831,0,0,0,1.8991-.4751l1.5683-1.1293.3889-1.3311c.69-2.3307-.5473-5.0209-1.1226-6.064l-18.114-33.2062A28.1141,28.1141,0,0,0,103.5466,152.0468Zm-.9785-103.5612a2.2885,2.2885,0,0,1-.0434.288H14.9486a2.29,2.29,0,0,1-.0435-.288l.101-11.661c0-4.215,10.9921-13.0562,24.66-13.0562H77.8075c13.6823,0,24.9043,9.3016,24.9043,13.5092ZM58.3838,67.7148a12.8732,12.8732,0,1,1-12.8623,12.87A12.8975,12.8975,0,0,1,58.3838,67.7148ZM71.16,171.441H44.0974a21.9178,21.9178,0,0,1-21.9268-21.9121,21.5112,21.5112,0,0,1,.3309-3.6183,33.0032,33.0032,0,0,0,10.1147,1.597h50.845a33.4524,33.4524,0,0,0,9.3378-1.36,23.8336,23.8336,0,0,1,.2731,3.3811A21.9142,21.9142,0,0,1,71.16,171.441Z"/></g></g></svg>