<svg xmlns="http://www.w3.org/2000/svg" viewBox="0 0 153.4434 192.8639"><defs><style>.cls-1{fill:#5b5b5f;}</style></defs><title>Asset 18</title><g id="Layer_2" data-name="Layer 2"><g id="Capa_1" data-name="Capa 1"><path class="cls-1" d="M153.4431,61.9381c-.7051-36.0909-29.2071-51.4712-51.349-57.9956,13.2506,7.524,22.7606,17.7825,27.6092,29.8464,10.1435,25.2793.8346,58.291-27.6814,98.1159l-.0575.0788c-.1155.1584-11.3229,13.92-15.5674,26.5087a35.8789,35.8789,0,0,0,4.3882-1.5823l-4.2584,17.4017a4.5572,4.5572,0,0,0-1.2523-.1871H69.7364a4.0937,4.0937,0,0,0-2.5463.8847L62.787,156.9749a33.9649,33.9649,0,0,0,3.8416,1.3524c-4.2733-12.5464-15.38-26.1853-15.51-26.3437l-.0714-.0788C22.5451,92.08,13.237,59.0682,23.3945,33.7889,28.1708,21.8546,37.5512,11.6757,50.5868,4.18,28.5591,10.82.7193,26.2789,0,61.9381c0,0-.3742,30.7606,26.0984,60.3624,0,0,18.301,19.4738,22.2,21.423,0,0,10.086,7.7118,12.402,11.23l5.28,21.6314a4.043,4.043,0,0,0-.3306,1.6184v10.5752a4.0826,4.0826,0,0,0,4.0859,4.0854H85.2745a4.0827,4.0827,0,0,0,4.086-4.0854V178.2033a4.1208,4.1208,0,0,0-1.4239-3.1005l4.9782-20.3872c2.5893-3.6036,12.2437-10.9921,12.2437-10.9921,3.8843-1.9492,22.1993-21.423,22.1993-21.423C153.8312,92.6987,153.4431,61.9381,153.4431,61.9381Z"/><path class="cls-1" d="M56.4711,5.611c-9.64,5.0283-22.3872,14.2436-28.43,29.66-9.3662,23.8973-.5031,55.4712,26.329,93.8567.8633,1.0792,12.2584,15.546,16.0138,28.7459a33.7378,33.7378,0,0,0,12.2724.1156C86.3683,144.76,97.85,130.2069,98.7129,129.1277c26.8321-38.3929,35.6955-69.9734,26.3142-93.878C117.2438,15.4238,98.3961,5.597,86.685,1.2516,82.0089.453,78.5417.151,77.1028.0361V0s-.1443,0-.3889.0147C76.4693,0,76.34,0,76.34,0V.0361c-1.5256.1149-5.2949.46-10.3732,1.3525A84.1164,84.1164,0,0,0,56.4711,5.611Z"/></g></g></svg>