<svg xmlns="http://www.w3.org/2000/svg" viewBox="0 0 444.1533 100.5977"><defs><style>.cls-1{fill:#5b5b5f;}</style></defs><title>Asset 19</title><g id="Layer_2" data-name="Layer 2"><g id="Capa_1" data-name="Capa 1"><path class="cls-1" d="M432.5436,33.3219l-176.6352,21.38a36.0858,36.0858,0,0,0-22.2148-23.9408,12.9252,12.9252,0,0,0-9.3369-9.0069V16.5744c.2733.5112.604.8994.9782.856l35.3066-7.3016c1.0937-.13,1.9136-.7049,1.871-1.2729-.0723-.576-1.0506-.9208-2.1158-.7911L225.32,12.3159a4.4336,4.4336,0,0,0-.9635.2593V3.8563c0-2.1222-.9783-3.8563-2.2306-3.8563s-2.23,1.7341-2.23,3.8563v8.6894a4.185,4.185,0,0,0-.8773-.23L183.97,8.0648c-1.1071-.13-2.0714.2151-2.1289.7911-.0573.568.7912,1.1433,1.8556,1.2729L219.019,17.43c.316.0434.618-.2659.8773-.69v4.7262a12.9519,12.9519,0,0,0-11.093,9.2942,36.082,36.082,0,0,0-22.1567,23.7537L11.6087,33.3219c-6.1149-.72-11.3229.604-11.5962,3.0136-.288,2.3742,4.4316,4.9134,10.5605,5.6692l54.3845,10.1A15.8607,15.8607,0,1,0,84.2081,55.68L186.69,74.7291a36.0317,36.0317,0,0,0,69.0451.3087L356.1173,56.3846a15.8153,15.8153,0,1,0,20.6316-3.8195l56.83-10.56c6.1289-.7558,10.8625-3.295,10.56-5.6692C443.8663,33.9259,438.6583,32.6022,432.5436,33.3219ZM221.2488,84.5913a7.9528,7.9528,0,1,1,7.97-7.9344A7.9406,7.9406,0,0,1,221.2488,84.5913Z"/></g></g></svg>