<svg xmlns="http://www.w3.org/2000/svg" viewBox="0 0 224.8083 245.6312"><defs><style>.cls-1{fill:#5b5b5f;}</style></defs><title>Asset 15</title><g id="Layer_2" data-name="Layer 2"><g id="Capa_1" data-name="Capa 1"><path class="cls-1" d="M8.1018,107.9555c-1.1084,37.8463-.21,77.3079,1.48,96.9168,0,15.1563,10.1627,12.65,10.1627,12.65h9.5545v16.3586c0,6.4937,6.6761,11.7507,14.9127,11.7507,8.2639,0,14.94-5.257,14.94-11.7507V217.5219H170.1434v16.3586c0,6.4937,6.7031,11.7507,14.94,11.7507,8.23,0,14.94-5.257,14.94-11.7507V217.5219h3.1083s11.9871,1.635,12.7508-5.4937c0-19.5619,1.243-62.9491.2093-103.89a12.3279,12.3279,0,0,0,8.7167-11.7709V72.3457a12.39,12.39,0,0,0-11.4059-12.298c-2.0071-19.5887-5.2031-34.8666-10.2709-40.86-20.8254-24.6769-166.8122-26.4742-183.36,0-4.0677,6.4935-6.9192,21.697-8.8182,40.9141A12.34,12.34,0,0,0,0,72.3457V96.3671A12.3542,12.3542,0,0,0,8.1018,107.9555Zm48.9144,90.2408a15.93,15.93,0,1,1,15.94-15.9128A15.9256,15.9256,0,0,1,57.0162,198.1963Zm109.877,0A15.93,15.93,0,1,1,182.84,182.2835,15.937,15.937,0,0,1,166.8932,198.1963ZM55.4012,22.6944h112.1V39.6682h-112.1ZM35.7652,49.0675H187.1376V128.49H35.7652Z"/></g></g></svg>