<svg xmlns="http://www.w3.org/2000/svg" viewBox="0 0 389.0447 128.2367"><defs><style>.cls-1{fill:#5b5b5f;}</style></defs><title>Asset 16</title><g id="Layer_2" data-name="Layer 2"><g id="Capa_1" data-name="Capa 1"><path class="cls-1" d="M277.2585,123.9374,40.1008,128.2367c-6.1706-.7483-10.4777-6.4677-12.8142-10.591,179.5481-.6342,305.29-31.4166,344.6032-42.4518C329.3849,125.58,277.2585,123.9374,277.2585,123.9374Z"/><path class="cls-1" d="M18.1836,109.4365s4.4448-.2979,6.4607,2.787c193.89-.3589,325.2064-36.0592,353.079-44.345Q379.97,64.9,382.1376,61.708s15.2727-21.5348.3972-20.3509c0,0-1.4208-.0836-3.94-.2369.58-2.8785-.55-5.5974-2.7642-6.3379l-.4888-.1681c-2.4741-.8094-5.3307,1.1377-6.4153,4.3454l-.5192,1.5882c-26.4526-1.4435-81.954-4.2078-94.661-2.7338L226.3841,13.9576s2.7338-3.5283-3.91-6.6664c0,0-66.926-10.5613-122.1067-6.262,0,0-3.91,2.3365-.3973,12.5389l4.7044,8.988a9.6658,9.6658,0,0,1,1.1761,7.4452l-3.5283,19.9544s.3816,3.52-6.2769,4.2993l-54.387,5.0938s-7.82,1.1761-10.5692,10.5613L18.9625,88.3139s-2.7338,2.7486-5.8648,3.1153c0,0-12.5233-1.5655-12.9362,5.4911C.1615,96.92-2.9539,104.74,18.1836,109.4365ZM263.1619,37.0422l-58.4346,3.0395-16.724-24.7268c17.87-.8476,33.2948-.6185,33.2948-.6185ZM134.8079,26.0844c4.322-6.3,26.2087-9.1256,46.888-10.3932l16.7084,24.7346-47.942,2.5117C137.9233,42.1438,134.8079,26.0844,134.8079,26.0844Z"/></g></g></svg>