<svg xmlns="http://www.w3.org/2000/svg" viewBox="0 0 380.2718 138.507"><defs><style>.cls-1{fill:#5b5b5f;}</style></defs><title>Asset 20</title><g id="Layer_2" data-name="Layer 2"><g id="Capa_1" data-name="Capa 1"><path class="cls-1" d="M0,55.2108l9.0135,46.73s3.3739,6.7336,9.0032,7.87L32.66,113.185s4.503-37.7093,38.2743-35.4434c0,0,30.3863-.5753,32.0806,31.5083,0,0,.5643,4.4964,8.9885,5.0717l177.3112,1.6833s7.3156-3.9352,8.4419-7.33c0,0,6.1973-33.1989,31.5193-31.5083,0,0,33.7712-.5613,32.645,33.22,0,0,2.8234,5.0578,6.7659,1.6832l11.2507-46.1762s5.0644-9.5387-24.2067-11.8046c-29.2858-2.2593-67.5387-3.9352-67.5387-3.9352s-6.7513-3.3738-8.4382-5.633L238.098,5.6887s-1.737-2.7764-9.0062-2.8338c0,0-81.6056-5.611-122.7034-1.1006,0,0-3.2088.18-9.8017,5.9344l-36.35,36.832a14.8356,14.8356,0,0,1-9.5749,3.9351S5.6361,50.7143,0,55.2108Zm183.3178-17.38V13.3071c.6726-6.6688,6.8051-5.46,6.8051-5.46l35.7211.7911a11.5039,11.5039,0,0,1,8.9347,3.87l26.3754,27.7249c3.4607,3.87-1.4674,4.5252-1.4674,4.5252H190.1229C182.9186,44.6216,183.3178,37.8305,183.3178,37.8305Zm-87.425,1.6118,20.39-27.9982a10.4871,10.4871,0,0,1,8.1288-4.13h44.5151s4.6578-.5179,4.4059,3.8637V40.2334s.126,4.2585-5.6036,4.5252H99.2231S92.0188,44.1037,95.8928,39.4423Z"/><path class="cls-1" d="M40.8246,111.5092a27.0089,27.0089,0,1,0,27.0088-27.034A26.9976,26.9976,0,0,0,40.8246,111.5092Zm14.0668,0A12.9417,12.9417,0,1,1,67.8334,124.45,12.9582,12.9582,0,0,1,54.8914,111.5092Z"/><path class="cls-1" d="M303.3885,111.5092a27.0181,27.0181,0,1,0,27.0126-27.034A27.0031,27.0031,0,0,0,303.3885,111.5092Zm14.0676,0a12.9435,12.9435,0,1,1,12.945,12.9412A12.9678,12.9678,0,0,1,317.4561,111.5092Z"/></g></g></svg>