<svg xmlns="http://www.w3.org/2000/svg" viewBox="0 0 450.8228 145.4744"><defs><style>.cls-1{fill:#5b5b5f;}</style></defs><title>Asset 17</title><g id="Layer_2" data-name="Layer 2"><g id="Capa_1" data-name="Capa 1"><path class="cls-1" d="M57.6264,114.3419A31.1468,31.1468,0,1,0,88.7673,83.21,31.1429,31.1429,0,0,0,57.6264,114.3419Zm18.02,0a13.1284,13.1284,0,1,1,13.1208,13.1242A13.1282,13.1282,0,0,1,75.6465,114.3419Z"/><path class="cls-1" d="M337.6126,114.3419A31.1528,31.1528,0,1,0,368.7611,83.21,31.15,31.15,0,0,0,337.6126,114.3419Zm18.037,0a13.12,13.12,0,1,1,13.1115,13.1242A13.11,13.11,0,0,1,355.65,114.3419Z"/><path class="cls-1" d="M6.68,113.93s5.42,9.14,45.3574,10.4845c0,0-7.115-46.0382,35.1862-46.6979,0,0,43.3207-4.743,39.9343,47.7208,0,0-.3218,4.7355,16.5892,5.3867H321.09s9.8037-2.3423,9.4818-10.8147c0,0-3.39-42.6476,34.8569-45.6919,0,0,44.6688-3.3813,44.6688,48.4059,0,0,2.6972,3.7125,5.7575,3.3662,0,0,35.8671-1.6751,34.8568-12.1765-1.0187-10.4921,0-11.515,0-11.515s2.7056-26.3895-18.6182-36.5352c-21.3119-10.1551-94.085-15.236-94.085-15.236s-6.0878-.33-9.4742-2.3677c0,0-52.4512-34.861-90.7147-34.861-6.0464,0-12.51-.1149-19.3116-.2222L216.1658,2.4108s-1.5508-4.645-8.7444-1.04L205.92,12.97c-33.5323-.446-72.6126.2475-107.18,12.6123C52.3925,42.18,58.4643,41.8408,58.4643,41.8408S51.0191,45.2146,46.61,45.5449c-4.384.3463-35.8747,3.0519-36.5428,8.1421C9.386,58.76,5.34,80.4135,5.34,80.4135S-7.5241,97.6793,6.68,113.93Zm300.5675-11.6806h11.8495v11.8293H307.2479Zm-13.3632-13.38H305.73v11.8292H293.8847Zm-12.3488,13.38h11.825v11.8293h-11.825Zm-13.3844-13.38h11.8251v11.8292H268.1515Zm-12.3529,13.38h11.8292v11.8293H255.7986Zm-13.3844-13.38h11.8293v11.8292H242.4142Zm-12.34,13.38h11.8335v11.8293H230.0739ZM228.7,48.2589l-7.7916-25.0362c0-5.0733,8.464-3.72,8.464-3.72,52.1217.6681,81.5749,28.7563,81.5749,28.7563,3.3653,2.714-1.0187,3.3906-1.0187,3.3906H236.8172C229.7191,51.65,228.7,48.2589,228.7,48.2589Zm-.1943,52.4393H216.6769V88.869h11.8292Zm-21.0847,1.5509h11.8217v11.8293H207.4214ZM194.03,88.869h11.8334v11.8292H194.03Zm-12.353,13.38h11.8293v11.8293H181.6765Zm-13.3844-13.38H180.13v11.8292H168.2921Zm-12.3488,13.38h11.85v11.8293h-11.85ZM142.559,88.869h11.85v11.8292h-11.85Zm-12.3445,13.38h11.8208v11.8293H130.2145ZM111.6132,46.2375c4.38-6.4341,13.1732-18.2794,13.1732-18.2794s-.664-6.0878,30.8022-7.7874c31.4948-1.6826,47.3745-.6681,47.3745-.6681a2.796,2.796,0,0,1,3.7285,2.7056V46.9141s.3421,4.0588-5.4112,4.3883H114.9743S107.2038,52.664,111.6132,46.2375Z"/></g></g></svg>